<?xml version="1.0" encoding="UTF-8"?>
<svg width="211.09mm" height="203.73mm" version="1.1" viewBox="0 0 747.94197 721.88123" xmlns="http://www.w3.org/2000/svg">
 <g transform="translate(-.31473 -14.279)">
  <rect x=".31473" y="14.279" width="747.94" height="721.88" ry="0" fill="#fff" fill-rule="evenodd"/>
  <path d="m484.06 388.55-15.033 4.4744-8.5903 12.677 3.5793 5.9658 4.832-0.37286 16.286 0.18642-0.5369-7.0844 2.6844-0.74575 4.8321-10.627z" fill="#f95" fill-rule="evenodd"/>
  <path d="m566.08 298.35-16.776 47.65-70.602 46.864 9.925 5.9868 68.256-24.9c3.0682-1.5634 12.65-8.8713 14.941-11.212l18.924-51.767z" fill="#f95" fill-rule="evenodd"/>
  <ellipse cx="573.35" cy="687.68" rx="151.43" ry="13.744" fill="#90a4ae" fill-rule="evenodd"/>
  <path d="m596.46 214.25 3.461 25.564-33.662 11.888 10.441-11.986-1.4591-19.34z" fill="#ffb380" fill-rule="evenodd"/>
  <path d="m628.82 399.4 2.489 18.098-5.7722 15.902c-3.4285 36.935-3.6845 74.322 0.58614 112.36l47.099 90.258 5.354 3.8136c8.9475 10.235-3.7155 15.461-14.99 18.536l-67.583-88.156-9.036-20.672-11.473-72.034-7.4201-57.224z" fill="#5d4037" fill-rule="evenodd"/>
  <g transform="matrix(1.6344 0 0 1.6344 -478.19 262.55)" fill="#ff8f00" fill-rule="evenodd">
   <path d="m486.39 69.345 9.1612 0.0354-1.9905 12.529-4.9691-0.01921z"/>
   <path d="m484.48 65.319 12.938 0.04999c-0.36796 1.0892-0.65298 2.2201-1.5387 3.0478l-9.8845-0.03819c-1.0336-0.88991-1.1563-2.0038-1.5151-3.0596z"/>
   <rect transform="matrix(.99999 .0038637 -.0038637 .99999 0 0)" x="484.64" y="63.102" width="13.201" height="1.1957" ry=".21297"/>
  </g>
  <g transform="matrix(1.6344 0 0 1.6344 -478.19 257.3)" fill="#ff8f00" fill-rule="evenodd">
   <path d="m486.39 69.345 9.1612 0.0354-1.9905 12.529-4.9691-0.01921z"/>
   <path d="m484.48 65.319 12.938 0.04999c-0.36796 1.0892-0.65298 2.2201-1.5387 3.0478l-9.8845-0.03819c-1.0336-0.88991-1.1563-2.0038-1.5151-3.0596z"/>
   <rect transform="matrix(.99999 .0038637 -.0038637 .99999 0 0)" x="484.64" y="63.102" width="13.201" height="1.1957" ry=".21297"/>
  </g>
  <g transform="matrix(1.6344 0 0 1.6344 -478.19 252.07)" fill="#ff8f00" fill-rule="evenodd">
   <path d="m486.39 69.345 9.1612 0.0354-1.9905 12.529-4.9691-0.01921z"/>
   <path d="m484.48 65.319 12.938 0.04999c-0.36796 1.0892-0.65298 2.2201-1.5387 3.0478l-9.8845-0.03819c-1.0336-0.88991-1.1563-2.0038-1.5151-3.0596z"/>
   <rect transform="matrix(.99999 .0038637 -.0038637 .99999 0 0)" x="484.64" y="63.102" width="13.201" height="1.1957" ry=".21297"/>
  </g>
  <g transform="matrix(1.6344 0 0 1.6344 -478.19 246.61)" fill="#ff8f00" fill-rule="evenodd">
   <path d="m486.39 69.345 9.1612 0.0354-1.9905 12.529-4.9691-0.01921z"/>
   <path d="m484.48 65.319 12.938 0.04999c-0.36796 1.0892-0.65298 2.2201-1.5387 3.0478l-9.8845-0.03819c-1.0336-0.88991-1.1563-2.0038-1.5151-3.0596z"/>
   <rect transform="matrix(.99999 .0038637 -.0038637 .99999 0 0)" x="484.64" y="63.102" width="13.201" height="1.1957" ry=".21297"/>
  </g>
  <g transform="matrix(1.6344 0 0 1.6344 -478.19 246.61)" fill="#ff8f00" fill-rule="evenodd">
   <path d="m486.39 69.345 9.1612 0.0354-1.9905 12.529-4.9691-0.01921z"/>
   <path d="m484.48 65.319 12.938 0.04999c-0.36796 1.0892-0.65298 2.2201-1.5387 3.0478l-9.8845-0.03819c-1.0336-0.88991-1.1563-2.0038-1.5151-3.0596z"/>
   <rect transform="matrix(.99999 .0038637 -.0038637 .99999 0 0)" x="484.64" y="63.102" width="13.201" height="1.1957" ry=".21297"/>
  </g>
  <g transform="matrix(1.6344 0 0 1.6344 -478.19 241.14)" fill="#ff8f00" fill-rule="evenodd">
   <path d="m486.39 69.345 9.1612 0.0354-1.9905 12.529-4.9691-0.01921z"/>
   <path d="m484.48 65.319 12.938 0.04999c-0.36796 1.0892-0.65298 2.2201-1.5387 3.0478l-9.8845-0.03819c-1.0336-0.88991-1.1563-2.0038-1.5151-3.0596z"/>
   <rect transform="matrix(.99999 .0038637 -.0038637 .99999 0 0)" x="484.64" y="63.102" width="13.201" height="1.1957" ry=".21297"/>
  </g>
  <g transform="matrix(1.6344 0 0 1.6344 -478.19 236.08)" fill="#ff8f00" fill-rule="evenodd">
   <path d="m486.39 69.345 9.1612 0.0354-1.9905 12.529-4.9691-0.01921z"/>
   <path d="m484.48 65.319 12.938 0.04999c-0.36796 1.0892-0.65298 2.2201-1.5387 3.0478l-9.8845-0.03819c-1.0336-0.88991-1.1563-2.0038-1.5151-3.0596z"/>
   <rect transform="matrix(.99999 .0038637 -.0038637 .99999 0 0)" x="484.64" y="63.102" width="13.201" height="1.1957" ry=".21297"/>
  </g>
  <g transform="matrix(1.6344 0 0 1.6344 -478.19 230.61)" fill="#ff8f00" fill-rule="evenodd">
   <path d="m486.39 69.345 9.1612 0.0354-1.9905 12.529-4.9691-0.01921z"/>
   <path d="m484.48 65.319 12.938 0.04999c-0.36796 1.0892-0.65298 2.2201-1.5387 3.0478l-9.8845-0.03819c-1.0336-0.88991-1.1563-2.0038-1.5151-3.0596z"/>
   <rect transform="matrix(.99999 .0038637 -.0038637 .99999 0 0)" x="484.64" y="63.102" width="13.201" height="1.1957" ry=".21297"/>
  </g>
  <g transform="matrix(1.6344 0 0 1.6344 -478.19 231.26)" fill="#ff8f00" fill-rule="evenodd">
   <path d="m486.39 69.345 9.1612 0.0354-1.9905 12.529-4.9691-0.01921z"/>
   <path d="m484.48 65.319 12.938 0.04999c-0.36796 1.0892-0.65298 2.2201-1.5387 3.0478l-9.8845-0.03819c-1.0336-0.88991-1.1563-2.0038-1.5151-3.0596z"/>
   <rect transform="matrix(.99999 .0038637 -.0038637 .99999 0 0)" x="484.64" y="63.102" width="13.201" height="1.1957" ry=".21297"/>
  </g>
  <g transform="matrix(1.6344 0 0 1.6344 -478.19 226.01)" fill="#ff8f00" fill-rule="evenodd">
   <path d="m486.39 69.345 9.1612 0.0354-1.9905 12.529-4.9691-0.01921z"/>
   <path d="m484.48 65.319 12.938 0.04999c-0.36796 1.0892-0.65298 2.2201-1.5387 3.0478l-9.8845-0.03819c-1.0336-0.88991-1.1563-2.0038-1.5151-3.0596z"/>
   <rect transform="matrix(.99999 .0038637 -.0038637 .99999 0 0)" x="484.64" y="63.102" width="13.201" height="1.1957" ry=".21297"/>
  </g>
  <g transform="matrix(1.6344 0 0 1.6344 -478.19 220.79)" fill="#ff8f00" fill-rule="evenodd">
   <path d="m486.39 69.345 9.1612 0.0354-1.9905 12.529-4.9691-0.01921z"/>
   <path d="m484.48 65.319 12.938 0.04999c-0.36796 1.0892-0.65298 2.2201-1.5387 3.0478l-9.8845-0.03819c-1.0336-0.88991-1.1563-2.0038-1.5151-3.0596z"/>
   <rect transform="matrix(.99999 .0038637 -.0038637 .99999 0 0)" x="484.64" y="63.102" width="13.201" height="1.1957" ry=".21297"/>
  </g>
  <g transform="matrix(1.6344 0 0 1.6344 -478.19 215.32)" fill="#ff8f00" fill-rule="evenodd">
   <path d="m486.39 69.345 9.1612 0.0354-1.9905 12.529-4.9691-0.01921z"/>
   <path d="m484.48 65.319 12.938 0.04999c-0.36796 1.0892-0.65298 2.2201-1.5387 3.0478l-9.8845-0.03819c-1.0336-0.88991-1.1563-2.0038-1.5151-3.0596z"/>
   <rect transform="matrix(.99999 .0038637 -.0038637 .99999 0 0)" x="484.64" y="63.102" width="13.201" height="1.1957" ry=".21297"/>
  </g>
  <g transform="matrix(1.6344 0 0 1.6344 -478.19 215.32)" fill="#ff8f00" fill-rule="evenodd">
   <path d="m486.39 69.345 9.1612 0.0354-1.9905 12.529-4.9691-0.01921z"/>
   <path d="m484.48 65.319 12.938 0.04999c-0.36796 1.0892-0.65298 2.2201-1.5387 3.0478l-9.8845-0.03819c-1.0336-0.88991-1.1563-2.0038-1.5151-3.0596z"/>
   <rect transform="matrix(.99999 .0038637 -.0038637 .99999 0 0)" x="484.64" y="63.102" width="13.201" height="1.1957" ry=".21297"/>
  </g>
  <g transform="matrix(1.6344 0 0 1.6344 -478.19 209.85)" fill="#ff8f00" fill-rule="evenodd">
   <path d="m486.39 69.345 9.1612 0.0354-1.9905 12.529-4.9691-0.01921z"/>
   <path d="m484.48 65.319 12.938 0.04999c-0.36796 1.0892-0.65298 2.2201-1.5387 3.0478l-9.8845-0.03819c-1.0336-0.88991-1.1563-2.0038-1.5151-3.0596z"/>
   <rect transform="matrix(.99999 .0038637 -.0038637 .99999 0 0)" x="484.64" y="63.102" width="13.201" height="1.1957" ry=".21297"/>
  </g>
  <g transform="matrix(1.6344 0 0 1.6344 -478.19 204.8)" fill="#ff8f00" fill-rule="evenodd">
   <path d="m486.39 69.345 9.1612 0.0354-1.9905 12.529-4.9691-0.01921z"/>
   <path d="m484.48 65.319 12.938 0.04999c-0.36796 1.0892-0.65298 2.2201-1.5387 3.0478l-9.8845-0.03819c-1.0336-0.88991-1.1563-2.0038-1.5151-3.0596z"/>
   <rect transform="matrix(.99999 .0038637 -.0038637 .99999 0 0)" x="484.64" y="63.102" width="13.201" height="1.1957" ry=".21297"/>
  </g>
  <g transform="matrix(1.6344 0 0 1.6344 -478.19 199.33)" fill="#ff8f00" fill-rule="evenodd">
   <path d="m486.39 69.345 9.1612 0.0354-1.9905 12.529-4.9691-0.01921z"/>
   <path d="m484.48 65.319 12.938 0.04999c-0.36796 1.0892-0.65298 2.2201-1.5387 3.0478l-9.8845-0.03819c-1.0336-0.88991-1.1563-2.0038-1.5151-3.0596z"/>
   <rect transform="matrix(.99999 .0038637 -.0038637 .99999 0 0)" x="484.64" y="63.102" width="13.201" height="1.1957" ry=".21297"/>
  </g>
  <g transform="matrix(1.6344 0 0 1.6344 -503.88 262.2)" fill="#ff8f00" fill-rule="evenodd">
   <path d="m486.39 69.345 9.1612 0.0354-1.9905 12.529-4.9691-0.01921z"/>
   <path d="m484.48 65.319 12.938 0.04999c-0.36796 1.0892-0.65298 2.2201-1.5387 3.0478l-9.8845-0.03819c-1.0336-0.88991-1.1563-2.0038-1.5151-3.0596z"/>
   <rect transform="matrix(.99999 .0038637 -.0038637 .99999 0 0)" x="484.64" y="63.102" width="13.201" height="1.1957" ry=".21297"/>
  </g>
  <g transform="matrix(1.6344 0 0 1.6344 -503.88 256.98)" fill="#ff8f00" fill-rule="evenodd">
   <path d="m486.39 69.345 9.1612 0.0354-1.9905 12.529-4.9691-0.01921z"/>
   <path d="m484.48 65.319 12.938 0.04999c-0.36796 1.0892-0.65298 2.2201-1.5387 3.0478l-9.8845-0.03819c-1.0336-0.88991-1.1563-2.0038-1.5151-3.0596z"/>
   <rect transform="matrix(.99999 .0038637 -.0038637 .99999 0 0)" x="484.64" y="63.102" width="13.201" height="1.1957" ry=".21297"/>
  </g>
  <g transform="matrix(1.6344 0 0 1.6344 -503.88 251.51)" fill="#ff8f00" fill-rule="evenodd">
   <path d="m486.39 69.345 9.1612 0.0354-1.9905 12.529-4.9691-0.01921z"/>
   <path d="m484.48 65.319 12.938 0.04999c-0.36796 1.0892-0.65298 2.2201-1.5387 3.0478l-9.8845-0.03819c-1.0336-0.88991-1.1563-2.0038-1.5151-3.0596z"/>
   <rect transform="matrix(.99999 .0038637 -.0038637 .99999 0 0)" x="484.64" y="63.102" width="13.201" height="1.1957" ry=".21297"/>
  </g>
  <g transform="matrix(1.6344 0 0 1.6344 -503.88 251.51)" fill="#ff8f00" fill-rule="evenodd">
   <path d="m486.39 69.345 9.1612 0.0354-1.9905 12.529-4.9691-0.01921z"/>
   <path d="m484.48 65.319 12.938 0.04999c-0.36796 1.0892-0.65298 2.2201-1.5387 3.0478l-9.8845-0.03819c-1.0336-0.88991-1.1563-2.0038-1.5151-3.0596z"/>
   <rect transform="matrix(.99999 .0038637 -.0038637 .99999 0 0)" x="484.64" y="63.102" width="13.201" height="1.1957" ry=".21297"/>
  </g>
  <g transform="matrix(1.6344 0 0 1.6344 -503.88 246.04)" fill="#ff8f00" fill-rule="evenodd">
   <path d="m486.39 69.345 9.1612 0.0354-1.9905 12.529-4.9691-0.01921z"/>
   <path d="m484.48 65.319 12.938 0.04999c-0.36796 1.0892-0.65298 2.2201-1.5387 3.0478l-9.8845-0.03819c-1.0336-0.88991-1.1563-2.0038-1.5151-3.0596z"/>
   <rect transform="matrix(.99999 .0038637 -.0038637 .99999 0 0)" x="484.64" y="63.102" width="13.201" height="1.1957" ry=".21297"/>
  </g>
  <g transform="matrix(1.6344 0 0 1.6344 -503.88 240.99)" fill="#ff8f00" fill-rule="evenodd">
   <path d="m486.39 69.345 9.1612 0.0354-1.9905 12.529-4.9691-0.01921z"/>
   <path d="m484.48 65.319 12.938 0.04999c-0.36796 1.0892-0.65298 2.2201-1.5387 3.0478l-9.8845-0.03819c-1.0336-0.88991-1.1563-2.0038-1.5151-3.0596z"/>
   <rect transform="matrix(.99999 .0038637 -.0038637 .99999 0 0)" x="484.64" y="63.102" width="13.201" height="1.1957" ry=".21297"/>
  </g>
  <g transform="matrix(1.6344 0 0 1.6344 -503.88 235.52)" fill="#ff8f00" fill-rule="evenodd">
   <path d="m486.39 69.345 9.1612 0.0354-1.9905 12.529-4.9691-0.01921z"/>
   <path d="m484.48 65.319 12.938 0.04999c-0.36796 1.0892-0.65298 2.2201-1.5387 3.0478l-9.8845-0.03819c-1.0336-0.88991-1.1563-2.0038-1.5151-3.0596z"/>
   <rect transform="matrix(.99999 .0038637 -.0038637 .99999 0 0)" x="484.64" y="63.102" width="13.201" height="1.1957" ry=".21297"/>
  </g>
  <rect transform="matrix(.96621 -.25776 .16131 .9869 0 0)" x="304.48" y="492.04" width="2.7594" height="55.852" ry=".64979" fill="#546e7a" fill-rule="evenodd"/>
  <ellipse cx="351.5" cy="28.302" rx="2.5125" ry="2.2959" fill="#455a64" fill-rule="evenodd"/>
  <rect x="345.98" y="49.623" width="11.482" height="445.6" ry=".6265" fill="#666" fill-rule="evenodd"/>
  <path d="m123.62 130.08c16.038-5.9122 40.511-8.0284 87.528 0 43.029-45.712 68.597-78.463 141.31-101.57-124.33 12.407-182.92 52.448-228.84 101.57z" fill="#29b6f6"/>
  <path d="m486.6 130.08c24.715-4.0748 46.233-10.814 88.815 0-47.372-40.923-98.466-83.202-224.71-101.57 55.673 27.833 114.23 58.21 135.89 101.57z" fill="#29b6f6"/>
  <path d="m211.14 130.08c31.803-7.3678 62.688-9.6875 91.389 0 12.489-31.651 12.487-61.882 48.755-101.57-67.129 18.603-105.85 49.556-140.14 101.57z" fill="#039be5"/>
  <path d="m395.21 130.08c26.364-3.6437 51.484-8.3932 91.389 0-15.98-41.042-71.656-87.941-135.31-101.57 19.142 30.147 40.525 63.228 43.921 101.57z" fill="#039be5"/>
  <path d="m302.53 130.08c29.508-5.5371 60.063-6.8847 92.677 0-2.9814-43.834-22.251-75.221-43.629-101.57-31.676 26.643-42.161 55.474-49.047 101.57z" fill="#29b6f6"/>
  <rect x="31.686" y="388.7" width="329.22" height="199.63" ry="5.8372" fill="#00acc1" fill-rule="evenodd"/>
  <rect x="69.044" y="371.77" width="95.73" height="26.267" ry=".53789" fill="#90a4ae" fill-rule="evenodd"/>
  <rect x="31.686" y="388.7" width="329.22" height="23.349" ry=".68271" fill="#546e7a" fill-rule="evenodd"/>
  <rect x="31.686" y="571.1" width="329.22" height="18.396" ry=".53789" fill="#546e7a" fill-rule="evenodd"/>
  <path d="m262.84 482.09a117.91 117.91 0 0 0 -117.91 117.91 117.91 117.91 0 0 0 117.91 117.91 117.91 117.91 0 0 0 117.91 -117.91 117.91 117.91 0 0 0 -117.91 -117.91zm0 20.43a97.481 97.481 0 0 1 97.48 97.48 97.481 97.481 0 0 1 -97.48 97.484 97.481 97.481 0 0 1 -97.484 -97.484 97.481 97.481 0 0 1 97.484 -97.48z" fill="#455a64" fill-rule="evenodd"/>
  <circle cx="262.84" cy="600.01" r="23.349" fill="#546e7a" fill-opacity=".63128" fill-rule="evenodd"/>
  <circle cx="262.84" cy="600.01" r="16.636" fill="#455a64" fill-rule="evenodd"/>
  <rect x="38.364" y="577.24" width="20.225" height="108.55" ry="2.9479" fill="#546e7a" fill-rule="evenodd"/>
  <rect transform="matrix(.70711 .70711 -.70711 .70711 0 0)" x="484.11" y="329.26" width="14.446" height="99.473" ry="2.7013" fill="#546e7a" fill-rule="evenodd"/>
  <rect x="333.82" y="394.48" width="161.64" height="17.57" ry=".51375" fill="#546e7a" fill-rule="evenodd"/>
  <rect x="65.834" y="365.06" width="101.86" height="15.76" ry=".53789" fill="#78909c" fill-rule="evenodd"/>
  <path d="m89.752 350.43-4.9543 17.337h6.9143l2.889-10.63 44.681 0.20749 2.889 10.423h7.224l-5.3661-17.337h-54.277z" fill="#78909c" fill-rule="evenodd"/>
  <rect transform="matrix(-.96621 -.25776 -.16131 .9869 0 0)" x="-513.54" y="278.39" width="2.7594" height="55.852" ry=".64979" fill="#546e7a" fill-rule="evenodd"/>
  <circle cx="412.42" cy="454.22" r="31.667" fill="#78909c" fill-rule="evenodd"/>
  <circle cx="413" cy="455.1" r="27.581" fill="#90a4ae" fill-rule="evenodd"/>
  <circle cx="413.15" cy="455.24" r="11.383" fill="#78909c" fill-rule="evenodd"/>
  <circle cx="414.74" cy="456.84" r="9.7846" fill="#90a4ae" fill-rule="evenodd"/>
  <rect x="258.89" y="493.18" width="7.8888" height="213.64" ry=".64979" fill="#455a64" fill-rule="evenodd"/>
  <rect transform="rotate(90)" x="596.06" y="-369.66" width="7.8888" height="213.64" ry=".64979" fill="#455a64" fill-rule="evenodd"/>
  <rect transform="matrix(-.70711 .70711 -.70711 -.70711 0 0)" x="234.47" y="-716.94" width="7.8888" height="213.64" ry=".64979" fill="#455a64" fill-rule="evenodd"/>
  <rect transform="matrix(-.70711 -.70711 .70711 -.70711 0 0)" x="-614.07" y="-345.23" width="7.8888" height="213.64" ry=".64979" fill="#455a64" fill-rule="evenodd"/>
  <rect transform="matrix(-.70711 -.70711 .70711 -.70711 0 0)" x="-614.07" y="-345.23" width="7.8888" height="213.64" ry=".64979" fill="#455a64" fill-rule="evenodd"/>
  <path d="m73.1 466.25 23.092-7.635 5.5528 33.218-12.525 4.1412z" fill="#fff" fill-rule="evenodd"/>
  <path d="m64.89 457.73 32.612-10.783c-8e-3 3.052 0.22805 6.1393-1.3037 8.9698l-24.915 8.2378c-3.3522-1.3688-4.6004-4.0694-6.3937-6.4248z" fill="#fff" fill-rule="evenodd"/>
  <path d="m63.886 454.69 32.612-10.783c-1.6708-3.0903-2.9755-6.3436-8.2118-7.846-2.1944-2.7948-4.2631-5.6312-9.4271-7.4442-1.8406-3.9564-3.5053-3.2336-7.8958-4.6524-3.948 4.9039-4.0853 5.4722-3.1111 8.7411-2.0423 3.5447-2.5961 7.0284-1.7121 10.453-2.5011 3.362-2.5058 7.4114-2.2544 11.531z" fill="#fff" fill-rule="evenodd"/>
  <rect transform="matrix(.94945 -.31392 .31392 .94945 0 0)" x="-82.303" y="454.05" width="35.046" height="3.1744" ry=".5654" fill="#fff" fill-rule="evenodd"/>
  <path d="m82.091 480.05a64.813 21.235 0 0 0 -50.405 7.897v7.4407a53.583 17.556 0 0 1 50.405 -11.656 53.583 17.556 0 0 1 53.584 17.557 53.583 17.556 0 0 1 -53.584 17.557 53.583 17.556 0 0 1 -50.405 -11.651v7.4148a64.813 21.235 0 0 0 50.405 7.9126 64.813 21.235 0 0 0 64.815 -21.233 64.813 21.235 0 0 0 -64.815 -21.238z" fill="#fff" fill-rule="evenodd"/>
  <rect x="41.532" y="532.69" width="83.85" height="7.2485" ry="1.9278" fill="#fff" fill-rule="evenodd"/>
  <path d="m555.63 407.19-27.988 121.11-1.0366 25.096v118.93l5.1396 3.0364 12.997 0.2083 1.5304 4.0416 5.5722-1.4035 12.078-119.36 4.1464-20.731 45.466-94.392 5.5851-45.272z" fill="#6d4c41" fill-rule="evenodd"/>
  <path d="m676.34 637.84c-0.32932 13.009-5.5555 16.566-15.594 19.476-4.2641 8.2832-4.6015 16.036-10.592 22.249-5.9886 4.3999-13.553 6.9129-26.121 10.81l3.1145 6.2218c12.899 1.2537 21.75-1.5865 33.115-4.9347 15.757-12.114 21.477-23.959 32.646-39.896-4.2779-5.6584-5.7062-8.5202-16.569-13.926z" fill="#546e7a" fill-rule="evenodd"/>
  <path d="m603.32 230.43c-21.943 6.8038-12.311 15.098-38.453 19.468-24.122 60.694-3.8754 127.97-19.384 165.25 2.0105 2.3792 18.48-4.6711 20.779-3.0158 19.319 13.911 47.863 3.6619 69.569-7.1229-24.426-54.828 0.0415-115.5-32.509-174.58z" fill="#039be5" fill-rule="evenodd"/>
  <path d="m568.08 300.35-16.776 47.65-70.602 46.864 9.925 5.9868 68.256-24.9c3.0682-1.5634 12.65-8.8713 14.941-11.212l18.924-51.767z" fill="#ffb380" fill-rule="evenodd"/>
  <path d="m593.99 252.25c-6.2195-0.62258-12.439 0.95535-18.659 6.5467l-15.549 46.918 37.317 27.278 11.402-57.829c-1.8612-9.498-6.4272-17.305-14.512-22.913z" fill="#0277bd" fill-rule="evenodd"/>
  <path d="m486.06 390.55-15.033 4.4744-8.5903 12.677 3.5793 5.9658 4.832-0.37286 16.286 0.18642-0.5369-7.0844 2.6844-0.74575 4.8321-10.627z" fill="#ffb380" fill-rule="evenodd"/>
  <path d="m555.31 187.3c-0.26677 4.3989 1.2594 6.3493 2.2683 9.006-2.0594 6.0076-3.2019 11.389-3.8886 16.459l5.5088 0.62111-0.97216 5.59 2.9165 4.9689c-1.364 2.8523-2.9334 5.8085-1.2962 7.1428 10.262 3.5436 20.523 0.62109 30.785 0.93164l8.7493-13.354 1.9443-27.018s-7.1731-11.236-8.7934-11.547c-1.6202-0.31057-23.914-6.8116-23.914-6.8116l-13.83 9.0419z" fill="#ffb380" fill-rule="evenodd"/>
  <path d="m557.36 174.07c-5.4545 4.8146-4.3834 9.6293-2.6556 14.444l16.813-2.1522 5.6724 5.8788c1.2089-0.11293 2.3548 12.446 3.4233 12.441 0.91995-3e-3 1.7826-12.588 2.5786-12.488 6.0334 0.75874 8.2452 4.8297 2.6436 17.058l7.8088 9.4968 4.9304 9.4855c6.7322-3.8346 11.086-23.006 12.477-48.394-2.799-2.1131-5.6269-4.1343-9.3785-3.2118-14.026-7.976-29.4-3.0637-44.313-2.5584z" fill="#424242" fill-rule="evenodd"/>
  <path d="m558.5 217.39c7.2917-1.3698 15.847-3.4607 15.847-3.4607-4.0938 3.9491-8.3231 7.6821-13.772 9.4719l-2.3754-4.4008z" fill="#fff" fill-rule="evenodd"/>
  <path d="m560.49 193.66c3.8106-1.8662 7.8077-3.1066 12.476-2.0962" fill="none" stroke="#000" stroke-width="1.7765px"/>
  <ellipse cx="564.59" cy="196.3" rx="2.3899" ry="2.0962" fill="#1a1a1a" fill-rule="evenodd"/>
  <path d="m551.97 668c-9.7217 8.6506-15.89 7.2662-24.875 1.9278-8.961 2.5483-14.852 7.601-23.48 7.474-7.4507 0.8243-12.704 2.4192-24.138-4.0917-3.1954 0.9729-3.96 2.7562-4.8942 4.4828 6.1493 6.6246 15.585 10.269 26.526 12.191 19.612 3.223 32.752 2.3677 52.02-0.3713 1.2069-6.9901 2.3198-9.9886-1.1585-21.613z" fill="#546e7a" fill-rule="evenodd"/>
  <rect x="41.532" y="545.01" width="69.207" height="7.2485" ry="1.9278" fill="#fff" fill-rule="evenodd"/>
 </g>
</svg>
