<?xml version="1.0" encoding="UTF-8"?>
<svg viewBox="0 0 485.76727 626.35828" xmlns="http://www.w3.org/2000/svg" xmlns:xlink="http://www.w3.org/1999/xlink">
 <defs>
  <linearGradient id="a">
   <stop stop-color="#5aa02c" offset="0"/>
   <stop stop-color="#83e741" offset="1"/>
  </linearGradient>
  <linearGradient id="e" x2="0" y1="875.7" y2="1016.9" gradientTransform="matrix(.41806 .06703 -.06703 .41806 -416.58 482.16)" gradientUnits="userSpaceOnUse" xlink:href="#a"/>
  <linearGradient id="d" x2="0" y1="875.7" y2="1016.9" gradientTransform="matrix(.51096 -.10273 .10273 .51096 -659.4 483.27)" gradientUnits="userSpaceOnUse" xlink:href="#a"/>
  <linearGradient id="c" x2="0" y1="875.7" y2="1016.9" gradientTransform="matrix(.32275 -.19369 .19369 .32275 -607.55 695.42)" gradientUnits="userSpaceOnUse" xlink:href="#a"/>
  <linearGradient id="b" x2="0" y1="875.7" y2="1016.9" gradientTransform="matrix(.17316 -.49158 .49158 .17316 -880.15 1100.9)" gradientUnits="userSpaceOnUse" xlink:href="#a"/>
 </defs>
 <g transform="translate(402.09 -849.58)">
  <path d="m53.379 1246.4c14.84 55.607 40.718 120.17 3.5502 149.23-38.657 30.221-149.1 52.424-208.99 52.424-64.809 0-165.24-29.551-201.9-62.935-32.254-29.374-30.803-96.421-6.7759-136.18 47.33-78.313 95.233-161.38 212.71-161.38s186.56 103.23 201.4 158.84z"/>
  <path d="m-4.9035 1252.5c10.613 39.767 29.119 85.94 2.5389 106.72-27.645 21.612-106.62 37.49-149.46 37.49-46.347 0-118.17-21.133-144.39-45.007-23.066-21.007-22.028-68.955-4.8457-97.385 33.848-56.005 68.105-115.41 152.12-115.41s133.42 73.824 144.03 113.59z" fill="#fff"/>
  <path transform="matrix(.41862 0 0 .40634 -157.85 957.77)" d="m485.71 255.22c0 216.18-211.71 391.43-472.86 391.43s-472.86-175.25-472.86-391.43 211.71-391.43 472.86-391.43 472.86 175.25 472.86 391.43z" fill-rule="evenodd"/>
  <path transform="matrix(.50815 -.18222 .18222 .50815 -18.804 756.88)" d="m-445.71 125.22c0 74.953-50.528 135.71-112.86 135.71s-112.86-60.761-112.86-135.71 50.528-135.71 112.86-135.71 112.86 60.761 112.86 135.71z"/>
  <path transform="matrix(-.4767 -.25333 -.25333 .4767 -261.16 719.14)" d="m-445.71 125.22c0 74.953-50.528 135.71-112.86 135.71s-112.86-60.761-112.86-135.71 50.528-135.71 112.86-135.71 112.86 60.761 112.86 135.71z"/>
  <path transform="matrix(.37889 0 0 .36778 -157.34 967.61)" d="m485.71 255.22c0 216.18-211.71 391.43-472.86 391.43s-472.86-175.25-472.86-391.43 211.71-391.43 472.86-391.43 472.86 175.25 472.86 391.43z" fill="#fff" fill-rule="evenodd"/>
  <path transform="matrix(-.375 -.19929 -.19929 .375 -211.13 762.06)" d="m-445.71 125.22c0 74.953-50.528 135.71-112.86 135.71s-112.86-60.761-112.86-135.71 50.528-135.71 112.86-135.71 112.86 60.761 112.86 135.71z" fill="#fff"/>
  <path transform="matrix(.38521 -.13813 .13813 .38521 -81.953 796.9)" d="m-445.71 125.22c0 74.953-50.528 135.71-112.86 135.71s-112.86-60.761-112.86-135.71 50.528-135.71 112.86-135.71 112.86 60.761 112.86 135.71z" fill="#fff"/>
  <path transform="matrix(.25408 -.09111 .09111 .25408 -149.31 839.58)" d="m-445.71 125.22c0 74.953-50.528 135.71-112.86 135.71s-112.86-60.761-112.86-135.71 50.528-135.71 112.86-135.71 112.86 60.761 112.86 135.71z"/>
  <path transform="matrix(-.25366 -.1348 -.1348 .25366 -151.42 813.27)" d="m-445.71 125.22c0 74.953-50.528 135.71-112.86 135.71s-112.86-60.761-112.86-135.71 50.528-135.71 112.86-135.71 112.86 60.761 112.86 135.71z"/>
  <path transform="matrix(-.38741 .12261 .12261 .38741 -406.75 922.96)" d="m-228.57 325.22c0 49.706-57.563 90-128.57 90s-128.57-40.294-128.57-90 57.563-90 128.57-90 128.57 40.294 128.57 90z"/>
  <g transform="matrix(.40635 0 0 .40635 116.3 899.71)">
   <path d="m-757.14 290.93c0 40.238-32.619 72.857-72.857 72.857s-72.857-32.619-72.857-72.857 32.619-72.857 72.857-72.857 72.857 32.619 72.857 72.857z"/>
   <path transform="matrix(.76471 0 0 .76471 -195.29 68.455)" d="m-757.14 290.93c0 40.238-32.619 72.857-72.857 72.857s-72.857-32.619-72.857-72.857 32.619-72.857 72.857-72.857 72.857 32.619 72.857 72.857z" fill="#fff"/>
   <path transform="matrix(.21569 0 0 .21569 -639.55 245.33)" d="m-757.14 290.93c0 40.238-32.619 72.857-72.857 72.857s-72.857-32.619-72.857-72.857 32.619-72.857 72.857-72.857 72.857 32.619 72.857 72.857z"/>
  </g>
  <path transform="matrix(.38741 .12261 -.12261 .38741 85.558 921.8)" d="m-228.57 325.22c0 49.706-57.563 90-128.57 90s-128.57-40.294-128.57-90 57.563-90 128.57-90 128.57 40.294 128.57 90z"/>
  <g transform="matrix(-.40635 0 0 .40635 -438.65 899.71)">
   <path d="m-757.14 290.93c0 40.238-32.619 72.857-72.857 72.857s-72.857-32.619-72.857-72.857 32.619-72.857 72.857-72.857 72.857 32.619 72.857 72.857z"/>
   <path transform="matrix(.76471 0 0 .76471 -195.29 68.455)" d="m-757.14 290.93c0 40.238-32.619 72.857-72.857 72.857s-72.857-32.619-72.857-72.857 32.619-72.857 72.857-72.857 72.857 32.619 72.857 72.857z" fill="#fff"/>
   <path transform="matrix(.21569 0 0 .21569 -639.55 245.33)" d="m-757.14 290.93c0 40.238-32.619 72.857-72.857 72.857s-72.857-32.619-72.857-72.857 32.619-72.857 72.857-72.857 72.857 32.619 72.857 72.857z"/>
  </g>
  <path transform="matrix(.37732 0 0 .34383 -92.843 906.38)" d="m-85.714 515.22c0 20.513-35.817 37.143-80 37.143s-80-16.629-80-37.143 35.817-37.143 80-37.143 80 16.629 80 37.143z"/>
  <path transform="matrix(.26848 0 0 .2188 -73.148 1054.4)" d="m-85.714 515.22c0 20.513-35.817 37.143-80 37.143s-80-16.629-80-37.143 35.817-37.143 80-37.143 80 16.629 80 37.143z"/>
  <path d="m-74.823 1225.5c-39.726 18.398-63.101 52.363-52.215 75.869 5.6052 12.103 19.198 19.074 40.938 12.214 16.583-11.822 15.638-41.49 57.902-58.619 16.187-6.5604 32.529-10.519 47.418-11.945-0.38398-2.8643-1.1776-5.6353-2.3992-8.273-10.886-23.506-51.917-27.644-91.643-9.2462z"/>
  <g transform="matrix(.40635 0 0 .40635 -68.297 878.82)">
   <path d="m-227.42 744.35s12.791 62.364-9.5754 125.86-71.419 104.07-71.419 104.07-27.062-67.392-4.6962-130.89 85.691-99.046 85.691-99.046z" fill="url(#b)"/>
   <path d="m-333.11 954.9c-50.79 77.537-50.931 162.51-5.0508 192.56 23.623 15.474 2.5704-36.366 6.2864-88.784-9.9609-50.062 9.4569-78.17 59.794-115.8 29.736-22.23 102.42-42.551 127.58-61.783-3.8969-4.7173-8.4255-8.8083-13.574-12.181-45.88-30.053-124.25 8.4499-175.04 85.987z" fill="#803300"/>
   <path d="m-36.85 952.13s-47.991 19.278-101.99 10.62-93.555-41.975-93.555-41.975 49.937-31.415 103.93-22.757 91.609 54.112 91.609 54.112z" fill="url(#e)"/>
   <path d="m-80.239 797.75s-21.611 40.583-63.299 65.6-87.666 24.996-87.666 24.996 15.988-49.953 57.675-74.971 93.289-15.626 93.289-15.626z" fill="url(#c)"/>
   <path d="m-19.118 861.68s-47.039 42.898-113.04 56.167-125.96-8.1147-125.96-8.1147 44.057-57.732 110.05-71.002 128.94 22.949 128.94 22.949z" fill="url(#d)"/>
  </g>
  <path d="m-221.8 1224.2c39.726 18.398 63.101 52.363 52.215 75.869-5.6052 12.103-19.198 19.074-40.938 12.214-16.583-11.822-15.638-41.49-57.902-58.619-16.187-6.5604-32.529-10.519-47.418-11.945 0.38398-2.8643 1.1776-5.6353 2.3992-8.273 10.886-23.506 51.917-27.644 91.643-9.2462z"/>
  <g transform="matrix(.38884 -.11798 .11798 .38884 -755.38 1168)">
   <path d="m916.12 481.81c-40.635 0-73.781 33.146-73.781 73.781a7.0126 7.0126 0 0 1 -11.438 5.4062c-11.124-9.1301-25.21-14.656-40.594-14.656-35.284 0-64.094 28.81-64.094 64.094 0 22.445 11.683 42.128 29.281 53.594a7.0126 7.0126 0 0 1 2.625 8.6562c-14.158 32.898-22.219 70.238-22.219 109.88 0 130.26 86.495 237.12 194.75 237.12s194.72-106.87 194.72-237.12c0-45.98-10.837-88.887-29.5-125.31a7.0126 7.0126 0 0 1 2.0625 -8.8125c20.544-15.225 33.906-39.579 33.906-67.031 0-45.984-37.485-83.469-83.469-83.469-22.156 0-42.274 8.7167-57.25 22.875a7.0126 7.0126 0 0 1 -10.906 -1.625c-12.722-22.307-36.669-37.375-64.094-37.375z" fill="#fff"/>
   <path transform="matrix(1.125 0 0 .85143 30.645 106.65)" d="m967.74 793.85c0 149.9-75.101 271.41-167.74 271.41s-167.74-121.52-167.74-271.41 75.101-271.41 167.74-271.41 167.74 121.52 167.74 271.41z"/>
   <path transform="matrix(.82662 0 0 .62561 269.35 324.63)" d="m967.74 793.85c0 149.9-75.101 271.41-167.74 271.41s-167.74-121.52-167.74-271.41 75.101-271.41 167.74-271.41 167.74 121.52 167.74 271.41z" fill="#fff"/>
   <path transform="matrix(.9 0 0 .9 256.13 182.98)" d="m658.06 474.94c0 35.631-28.885 64.516-64.516 64.516s-64.516-28.885-64.516-64.516 28.885-64.516 64.516-64.516 64.516 28.885 64.516 64.516z"/>
   <path transform="matrix(1.05 0 0 1.05 292.9 56.898)" d="m658.06 474.94c0 35.631-28.885 64.516-64.516 64.516s-64.516-28.885-64.516-64.516 28.885-64.516 64.516-64.516 64.516 28.885 64.516 64.516z"/>
   <path transform="matrix(1.2 0 0 1.2 336.13 11.463)" d="m658.06 474.94c0 35.631-28.885 64.516-64.516 64.516s-64.516-28.885-64.516-64.516 28.885-64.516 64.516-64.516 64.516 28.885 64.516 64.516z"/>
  </g>
  <g transform="matrix(-.38884 -.11798 -.11798 .38884 436.96 1186.4)">
   <path d="m916.12 481.81c-40.635 0-73.781 33.146-73.781 73.781a7.0126 7.0126 0 0 1 -11.438 5.4062c-11.124-9.1301-25.21-14.656-40.594-14.656-35.284 0-64.094 28.81-64.094 64.094 0 22.445 11.683 42.128 29.281 53.594a7.0126 7.0126 0 0 1 2.625 8.6562c-14.158 32.898-22.219 70.238-22.219 109.88 0 130.26 86.495 237.12 194.75 237.12s194.72-106.87 194.72-237.12c0-45.98-10.837-88.887-29.5-125.31a7.0126 7.0126 0 0 1 2.0625 -8.8125c20.544-15.225 33.906-39.579 33.906-67.031 0-45.984-37.485-83.469-83.469-83.469-22.156 0-42.274 8.7167-57.25 22.875a7.0126 7.0126 0 0 1 -10.906 -1.625c-12.722-22.307-36.669-37.375-64.094-37.375z" fill="#fff"/>
   <path transform="matrix(1.125 0 0 .85143 30.645 106.65)" d="m967.74 793.85c0 149.9-75.101 271.41-167.74 271.41s-167.74-121.52-167.74-271.41 75.101-271.41 167.74-271.41 167.74 121.52 167.74 271.41z"/>
   <path transform="matrix(.82662 0 0 .62561 269.35 324.63)" d="m967.74 793.85c0 149.9-75.101 271.41-167.74 271.41s-167.74-121.52-167.74-271.41 75.101-271.41 167.74-271.41 167.74 121.52 167.74 271.41z" fill="#fff"/>
   <path transform="matrix(.9 0 0 .9 256.13 182.98)" d="m658.06 474.94c0 35.631-28.885 64.516-64.516 64.516s-64.516-28.885-64.516-64.516 28.885-64.516 64.516-64.516 64.516 28.885 64.516 64.516z"/>
   <path transform="matrix(1.05 0 0 1.05 292.9 56.898)" d="m658.06 474.94c0 35.631-28.885 64.516-64.516 64.516s-64.516-28.885-64.516-64.516 28.885-64.516 64.516-64.516 64.516 28.885 64.516 64.516z"/>
   <path transform="matrix(1.2 0 0 1.2 336.13 11.463)" d="m658.06 474.94c0 35.631-28.885 64.516-64.516 64.516s-64.516-28.885-64.516-64.516 28.885-64.516 64.516-64.516 64.516 28.885 64.516 64.516z"/>
  </g>
 </g>
</svg>
