<?xml version='1.0' encoding='utf-8'?>
<svg xmlns="http://www.w3.org/2000/svg" width="210mm" height="297mm" viewBox="0 0 210 297" version="1.1" id="svg5"><defs id="defs2"><linearGradient id="linearGradient6589"><stop style="stop-color:#c8beb7;stop-opacity:1;" offset="0" id="stop6587"/></linearGradient><clipPath clipPathUnits="userSpaceOnUse" id="clipPath10689"><g id="g10693"><rect style="opacity:1;fill:#ff7070;fill-opacity:1;stroke:none;stroke-width:1.50229;stroke-miterlimit:4;stroke-dasharray:none;stroke-dashoffset:0;stroke-opacity:1" id="rect10691" width="231.98996" height="123.8565" x="-70.112808" y="-16.779287"/></g></clipPath><clipPath clipPathUnits="userSpaceOnUse" id="clipPath10695"><g id="g10699" transform="matrix(1.1227595,-9.3857168,-9.3857168,-1.1227595,823.57027,1001.2386)"><rect style="opacity:1;fill:#ff7070;fill-opacity:1;stroke:none;stroke-width:1.50229;stroke-miterlimit:4;stroke-dasharray:none;stroke-dashoffset:0;stroke-opacity:1" id="rect10697" width="231.98996" height="123.8565" x="-70.112808" y="-16.779287"/></g></clipPath><clipPath clipPathUnits="userSpaceOnUse" id="clipPath10701"><g id="g10705" transform="matrix(-0.18202753,9.4508797,-9.4508797,-0.18202753,906.13781,-787.77642)"><rect style="opacity:1;fill:#ff7070;fill-opacity:1;stroke:none;stroke-width:1.50229;stroke-miterlimit:4;stroke-dasharray:none;stroke-dashoffset:0;stroke-opacity:1" id="rect10703" width="231.98996" height="123.8565" x="-70.112808" y="-16.779287"/></g></clipPath><clipPath clipPathUnits="userSpaceOnUse" id="clipPath10707"><g id="g10711" transform="matrix(2.4223552,-9.1369833,-9.1369833,-2.4223552,593.3701,1082.013)"><rect style="opacity:1;fill:#ff7070;fill-opacity:1;stroke:none;stroke-width:1.50229;stroke-miterlimit:4;stroke-dasharray:none;stroke-dashoffset:0;stroke-opacity:1" id="rect10709" width="231.98996" height="123.8565" x="-70.112808" y="-16.779287"/></g></clipPath><clipPath clipPathUnits="userSpaceOnUse" id="clipPath10713"><g id="g10717" transform="matrix(-1.0691986,4.0329561,4.0329561,1.0691986,-204.5317,-510.26531)"><rect style="opacity:1;fill:#ff7070;fill-opacity:1;stroke:none;stroke-width:1.50229;stroke-miterlimit:4;stroke-dasharray:none;stroke-dashoffset:0;stroke-opacity:1" id="rect10715" width="231.98996" height="123.8565" x="-70.112808" y="-16.779287"/></g></clipPath><clipPath clipPathUnits="userSpaceOnUse" id="clipPath10719"><g id="g10723" transform="matrix(1.0691986,-4.0329561,4.0329561,1.0691986,-469.16312,483.55775)"><rect style="opacity:1;fill:#ff7070;fill-opacity:1;stroke:none;stroke-width:1.50229;stroke-miterlimit:4;stroke-dasharray:none;stroke-dashoffset:0;stroke-opacity:1" id="rect10721" width="231.98996" height="123.8565" x="-70.112808" y="-16.779287"/></g></clipPath><clipPath clipPathUnits="userSpaceOnUse" id="clipPath10725"><g id="g10729" transform="matrix(-1.6609138,4.0843288,4.0843288,1.6609138,-95.313866,-557.64926)"><rect style="opacity:1;fill:#ff7070;fill-opacity:1;stroke:none;stroke-width:1.50229;stroke-miterlimit:4;stroke-dasharray:none;stroke-dashoffset:0;stroke-opacity:1" id="rect10727" width="231.98996" height="123.8565" x="-70.112808" y="-16.779287"/></g></clipPath><clipPath clipPathUnits="userSpaceOnUse" id="clipPath10731"><g id="g10735" transform="matrix(1.6893736,-3.8149623,3.8149623,1.6893736,-493.31203,411.67521)"><rect style="opacity:1;fill:#ff7070;fill-opacity:1;stroke:none;stroke-width:1.50229;stroke-miterlimit:4;stroke-dasharray:none;stroke-dashoffset:0;stroke-opacity:1" id="rect10733" width="231.98996" height="123.8565" x="-70.112808" y="-16.779287"/></g></clipPath><clipPath clipPathUnits="userSpaceOnUse" id="clipPath10737"><g id="g10741" transform="matrix(0.26692275,-3.7700904,3.7700904,0.26692275,-192.83032,552.36348)"><rect style="opacity:1;fill:#ff7070;fill-opacity:1;stroke:none;stroke-width:1.50229;stroke-miterlimit:4;stroke-dasharray:none;stroke-dashoffset:0;stroke-opacity:1" id="rect10739" width="231.98996" height="123.8565" x="-70.112808" y="-16.779287"/></g></clipPath><clipPath clipPathUnits="userSpaceOnUse" id="clipPath10743"><g id="g10747" transform="matrix(0.38222388,3.7601508,-3.7601508,0.38222388,143.00307,-386.30464)"><rect style="opacity:1;fill:#ff7070;fill-opacity:1;stroke:none;stroke-width:1.50229;stroke-miterlimit:4;stroke-dasharray:none;stroke-dashoffset:0;stroke-opacity:1" id="rect10745" width="231.98996" height="123.8565" x="-70.112808" y="-16.779287"/></g></clipPath><clipPath clipPathUnits="userSpaceOnUse" id="clipPath10749"><g id="g10753" transform="matrix(3.7795276,0,0,3.7795276,-1092.2407,443.02477)"><rect style="opacity:1;fill:#ff7070;fill-opacity:1;stroke:none;stroke-width:1.50229;stroke-miterlimit:4;stroke-dasharray:none;stroke-dashoffset:0;stroke-opacity:1" id="rect10751" width="231.98996" height="123.8565" x="-70.112808" y="-16.779287"/></g></clipPath><clipPath clipPathUnits="userSpaceOnUse" id="clipPath10755"><g id="g10759"><rect style="opacity:1;fill:#ff7070;fill-opacity:1;stroke:none;stroke-width:1.50229;stroke-miterlimit:4;stroke-dasharray:none;stroke-dashoffset:0;stroke-opacity:1" id="rect10757" width="231.98996" height="123.8565" x="-70.112808" y="-16.779287"/></g></clipPath><clipPath clipPathUnits="userSpaceOnUse" id="clipPath10761"><g id="g10765" transform="matrix(-0.55346782,4.6719568,-4.6719568,-0.55346782,420.41964,219.61215)"><rect style="opacity:1;fill:#ff7070;fill-opacity:1;stroke:none;stroke-width:1.50229;stroke-miterlimit:4;stroke-dasharray:none;stroke-dashoffset:0;stroke-opacity:1" id="rect10763" width="231.98996" height="123.8565" x="-70.112808" y="-16.779287"/></g></clipPath><clipPath clipPathUnits="userSpaceOnUse" id="clipPath10767"><g id="g10771" transform="matrix(2.430746,-4.0280245,4.0280245,2.430746,-323.61368,-210.20655)"><rect style="opacity:1;fill:#ff7070;fill-opacity:1;stroke:none;stroke-width:1.50229;stroke-miterlimit:4;stroke-dasharray:none;stroke-dashoffset:0;stroke-opacity:1" id="rect10769" width="231.98996" height="123.8565" x="-70.112808" y="-16.779287"/></g></clipPath><clipPath clipPathUnits="userSpaceOnUse" id="clipPath10773"><g id="g10777" transform="matrix(-0.82733913,5.0439055,-5.0439055,-0.82733913,398.55556,238.79021)"><rect style="opacity:1;fill:#ff7070;fill-opacity:1;stroke:none;stroke-width:1.50229;stroke-miterlimit:4;stroke-dasharray:none;stroke-dashoffset:0;stroke-opacity:1" id="rect10775" width="231.98996" height="123.8565" x="-70.112808" y="-16.779287"/></g></clipPath><clipPath clipPathUnits="userSpaceOnUse" id="clipPath10779"><g id="g10783" transform="matrix(1.8855364,-4.3102505,4.3102505,1.8855364,-308.71549,-150.333)"><rect style="opacity:1;fill:#ff7070;fill-opacity:1;stroke:none;stroke-width:1.50229;stroke-miterlimit:4;stroke-dasharray:none;stroke-dashoffset:0;stroke-opacity:1" id="rect10781" width="231.98996" height="123.8565" x="-70.112808" y="-16.779287"/></g></clipPath><clipPath clipPathUnits="userSpaceOnUse" id="clipPath10785"><g id="g10789" transform="matrix(-0.01508749,-3.7794976,3.7794976,-0.01508749,-172.45091,58.594185)"><rect style="opacity:1;fill:#ff7070;fill-opacity:1;stroke:none;stroke-width:1.50229;stroke-miterlimit:4;stroke-dasharray:none;stroke-dashoffset:0;stroke-opacity:1" id="rect10787" width="231.98996" height="123.8565" x="-70.112808" y="-16.779287"/></g></clipPath><clipPath clipPathUnits="userSpaceOnUse" id="clipPath10791"><g id="g10795" transform="matrix(1.4650196,3.4840418,-3.4840418,1.4650196,189.69259,82.052816)"><rect style="opacity:1;fill:#ff7070;fill-opacity:1;stroke:none;stroke-width:1.50229;stroke-miterlimit:4;stroke-dasharray:none;stroke-dashoffset:0;stroke-opacity:1" id="rect10793" width="231.98996" height="123.8565" x="-70.112808" y="-16.779287"/></g></clipPath><clipPath clipPathUnits="userSpaceOnUse" id="clipPath10797"><g id="g10801" transform="matrix(3.7795276,0,0,3.7795276,-1092.872,440.24686)"><rect style="opacity:1;fill:#ff7070;fill-opacity:1;stroke:none;stroke-width:1.50229;stroke-miterlimit:4;stroke-dasharray:none;stroke-dashoffset:0;stroke-opacity:1" id="rect10799" width="231.98996" height="123.8565" x="-70.112808" y="-16.779287"/></g></clipPath><clipPath clipPathUnits="userSpaceOnUse" id="clipPath10803"><g id="g10807"><rect style="opacity:1;fill:#ff7070;fill-opacity:1;stroke:none;stroke-width:1.50229;stroke-miterlimit:4;stroke-dasharray:none;stroke-dashoffset:0;stroke-opacity:1" id="rect10805" width="231.98996" height="123.8565" x="-70.112808" y="-16.779287"/></g></clipPath><clipPath clipPathUnits="userSpaceOnUse" id="clipPath10809"><g id="g10813"><rect style="opacity:1;fill:#ff7070;fill-opacity:1;stroke:none;stroke-width:1.50229;stroke-miterlimit:4;stroke-dasharray:none;stroke-dashoffset:0;stroke-opacity:1" id="rect10811" width="231.98996" height="123.8565" x="-70.112808" y="-16.779287"/></g></clipPath><clipPath clipPathUnits="userSpaceOnUse" id="clipPath10815"><g id="g10819"><rect style="opacity:1;fill:#ff7070;fill-opacity:1;stroke:none;stroke-width:1.50229;stroke-miterlimit:4;stroke-dasharray:none;stroke-dashoffset:0;stroke-opacity:1" id="rect10817" width="231.98996" height="123.8565" x="-70.112808" y="-16.779287"/></g></clipPath><clipPath clipPathUnits="userSpaceOnUse" id="clipPath10821"><g id="g10825"><rect style="opacity:1;fill:#ff7070;fill-opacity:1;stroke:none;stroke-width:1.50229;stroke-miterlimit:4;stroke-dasharray:none;stroke-dashoffset:0;stroke-opacity:1" id="rect10823" width="231.98996" height="123.8565" x="-70.112808" y="-16.779287"/></g></clipPath><clipPath clipPathUnits="userSpaceOnUse" id="clipPath10827"><g id="g10831"><rect style="opacity:1;fill:#ff7070;fill-opacity:1;stroke:none;stroke-width:1.50229;stroke-miterlimit:4;stroke-dasharray:none;stroke-dashoffset:0;stroke-opacity:1" id="rect10829" width="231.98996" height="123.8565" x="-70.112808" y="-16.779287"/></g></clipPath><clipPath clipPathUnits="userSpaceOnUse" id="clipPath10833"><g id="g10837"><rect style="opacity:1;fill:#ff7070;fill-opacity:1;stroke:none;stroke-width:1.50229;stroke-miterlimit:4;stroke-dasharray:none;stroke-dashoffset:0;stroke-opacity:1" id="rect10835" width="231.98996" height="123.8565" x="-70.112808" y="-16.779287"/></g></clipPath><clipPath clipPathUnits="userSpaceOnUse" id="clipPath10839"><g id="g10843"><rect style="opacity:1;fill:#ff7070;fill-opacity:1;stroke:none;stroke-width:1.50229;stroke-miterlimit:4;stroke-dasharray:none;stroke-dashoffset:0;stroke-opacity:1" id="rect10841" width="231.98996" height="123.8565" x="-70.112808" y="-16.779287"/></g></clipPath><clipPath clipPathUnits="userSpaceOnUse" id="clipPath10845"><g id="g10849"><rect style="opacity:1;fill:#ff7070;fill-opacity:1;stroke:none;stroke-width:1.50229;stroke-miterlimit:4;stroke-dasharray:none;stroke-dashoffset:0;stroke-opacity:1" id="rect10847" width="231.98996" height="123.8565" x="-70.112808" y="-16.779287"/></g></clipPath><clipPath clipPathUnits="userSpaceOnUse" id="clipPath10851"><g id="g10855"><rect style="opacity:1;fill:#ff7070;fill-opacity:1;stroke:none;stroke-width:1.50229;stroke-miterlimit:4;stroke-dasharray:none;stroke-dashoffset:0;stroke-opacity:1" id="rect10853" width="231.98996" height="123.8565" x="-70.112808" y="-16.779287"/></g></clipPath><clipPath clipPathUnits="userSpaceOnUse" id="clipPath10857"><g id="g10861"><rect style="opacity:1;fill:#ff7070;fill-opacity:1;stroke:none;stroke-width:1.50229;stroke-miterlimit:4;stroke-dasharray:none;stroke-dashoffset:0;stroke-opacity:1" id="rect10859" width="231.98996" height="123.8565" x="-70.112808" y="-16.779287"/></g></clipPath><clipPath clipPathUnits="userSpaceOnUse" id="clipPath10863"><g id="g10867"><rect style="opacity:1;fill:#ff7070;fill-opacity:1;stroke:none;stroke-width:1.50229;stroke-miterlimit:4;stroke-dasharray:none;stroke-dashoffset:0;stroke-opacity:1" id="rect10865" width="231.98996" height="123.8565" x="-70.112808" y="-16.779287"/></g></clipPath><clipPath clipPathUnits="userSpaceOnUse" id="clipPath10869"><g id="g10873"><rect style="opacity:1;fill:#ff7070;fill-opacity:1;stroke:none;stroke-width:1.50229;stroke-miterlimit:4;stroke-dasharray:none;stroke-dashoffset:0;stroke-opacity:1" id="rect10871" width="231.98996" height="123.8565" x="-70.112808" y="-16.779287"/></g></clipPath><clipPath clipPathUnits="userSpaceOnUse" id="clipPath10875"><g id="g10879"><rect style="opacity:1;fill:#ff7070;fill-opacity:1;stroke:none;stroke-width:1.50229;stroke-miterlimit:4;stroke-dasharray:none;stroke-dashoffset:0;stroke-opacity:1" id="rect10877" width="231.98996" height="123.8565" x="-70.112808" y="-16.779287"/></g></clipPath><clipPath clipPathUnits="userSpaceOnUse" id="clipPath10881"><g id="g10885"><rect style="opacity:1;fill:#ff7070;fill-opacity:1;stroke:none;stroke-width:1.50229;stroke-miterlimit:4;stroke-dasharray:none;stroke-dashoffset:0;stroke-opacity:1" id="rect10883" width="231.98996" height="123.8565" x="-70.112808" y="-16.779287"/></g></clipPath><clipPath clipPathUnits="userSpaceOnUse" id="clipPath10887"><g id="g10891"><rect style="opacity:1;fill:#ff7070;fill-opacity:1;stroke:none;stroke-width:1.50229;stroke-miterlimit:4;stroke-dasharray:none;stroke-dashoffset:0;stroke-opacity:1" id="rect10889" width="231.98996" height="123.8565" x="-70.112808" y="-16.779287"/></g></clipPath><clipPath clipPathUnits="userSpaceOnUse" id="clipPath10893"><g id="g10897"><rect style="opacity:1;fill:#ff7070;fill-opacity:1;stroke:none;stroke-width:1.50229;stroke-miterlimit:4;stroke-dasharray:none;stroke-dashoffset:0;stroke-opacity:1" id="rect10895" width="231.98996" height="123.8565" x="-70.112808" y="-16.779287"/></g></clipPath><clipPath clipPathUnits="userSpaceOnUse" id="clipPath10899"><g id="g10903"><rect style="opacity:1;fill:#ff7070;fill-opacity:1;stroke:none;stroke-width:1.50229;stroke-miterlimit:4;stroke-dasharray:none;stroke-dashoffset:0;stroke-opacity:1" id="rect10901" width="231.98996" height="123.8565" x="-70.112808" y="-16.779287"/></g></clipPath><clipPath clipPathUnits="userSpaceOnUse" id="clipPath10905"><g id="g10909"><rect style="opacity:1;fill:#ff7070;fill-opacity:1;stroke:none;stroke-width:1.50229;stroke-miterlimit:4;stroke-dasharray:none;stroke-dashoffset:0;stroke-opacity:1" id="rect10907" width="231.98996" height="123.8565" x="-70.112808" y="-16.779287"/></g></clipPath><clipPath clipPathUnits="userSpaceOnUse" id="clipPath10911"><g id="g10915"><rect style="opacity:1;fill:#ff7070;fill-opacity:1;stroke:none;stroke-width:1.50229;stroke-miterlimit:4;stroke-dasharray:none;stroke-dashoffset:0;stroke-opacity:1" id="rect10913" width="231.98996" height="123.8565" x="-70.112808" y="-16.779287"/></g></clipPath><clipPath clipPathUnits="userSpaceOnUse" id="clipPath10917"><g id="g10921"><rect style="opacity:1;fill:#ff7070;fill-opacity:1;stroke:none;stroke-width:1.50229;stroke-miterlimit:4;stroke-dasharray:none;stroke-dashoffset:0;stroke-opacity:1" id="rect10919" width="231.98996" height="123.8565" x="-70.112808" y="-16.779287"/></g></clipPath><clipPath clipPathUnits="userSpaceOnUse" id="clipPath10923"><g id="g10927"><rect style="opacity:1;fill:#ff7070;fill-opacity:1;stroke:none;stroke-width:1.50229;stroke-miterlimit:4;stroke-dasharray:none;stroke-dashoffset:0;stroke-opacity:1" id="rect10925" width="231.98996" height="123.8565" x="-70.112808" y="-16.779287"/></g></clipPath><clipPath clipPathUnits="userSpaceOnUse" id="clipPath10929"><g id="g10933"><rect style="opacity:1;fill:#ff7070;fill-opacity:1;stroke:none;stroke-width:1.50229;stroke-miterlimit:4;stroke-dasharray:none;stroke-dashoffset:0;stroke-opacity:1" id="rect10931" width="231.98996" height="123.8565" x="-70.112808" y="-16.779287"/></g></clipPath><clipPath clipPathUnits="userSpaceOnUse" id="clipPath10935"><g id="g10939"><rect style="opacity:1;fill:#ff7070;fill-opacity:1;stroke:none;stroke-width:1.50229;stroke-miterlimit:4;stroke-dasharray:none;stroke-dashoffset:0;stroke-opacity:1" id="rect10937" width="231.98996" height="123.8565" x="-70.112808" y="-16.779287"/></g></clipPath><clipPath clipPathUnits="userSpaceOnUse" id="clipPath10941"><g id="g10945"><rect style="opacity:1;fill:#ff7070;fill-opacity:1;stroke:none;stroke-width:1.50229;stroke-miterlimit:4;stroke-dasharray:none;stroke-dashoffset:0;stroke-opacity:1" id="rect10943" width="231.98996" height="123.8565" x="-70.112808" y="-16.779287"/></g></clipPath><clipPath clipPathUnits="userSpaceOnUse" id="clipPath10947"><g id="g10951"><rect style="opacity:1;fill:#ff7070;fill-opacity:1;stroke:none;stroke-width:1.50229;stroke-miterlimit:4;stroke-dasharray:none;stroke-dashoffset:0;stroke-opacity:1" id="rect10949" width="231.98996" height="123.8565" x="-70.112808" y="-16.779287"/></g></clipPath></defs><g id="layer1"><path style="fill:#7ee3ff;fill-opacity:1;stroke:#7ee3ff;stroke-width:0.377426;stroke-miterlimit:4;stroke-dasharray:none;stroke-dashoffset:0;stroke-opacity:1" d="" id="path9007"/><path style="fill:#c8b7b7;fill-opacity:1;stroke:#c8b7b7;stroke-width:3.08078;stroke-miterlimit:4;stroke-dasharray:none;stroke-dashoffset:0;stroke-opacity:1;paint-order:stroke fill markers" d="" id="path4900"/><path style="fill:#0000ff;fill-opacity:1;stroke:#0000ff;stroke-width:8.01299;stroke-miterlimit:4;stroke-dasharray:none;stroke-dashoffset:0;stroke-opacity:1" d="" id="path4808"/><path style="fill:#c8ab37;fill-opacity:1;stroke:#c8ab37;stroke-width:2.98924;stroke-miterlimit:4;stroke-dasharray:none;stroke-dashoffset:0;stroke-opacity:1" d="" id="path4783"/><path style="fill:#782121;fill-opacity:1;stroke:#782121;stroke-width:2.76429;stroke-miterlimit:4;stroke-dasharray:none;stroke-dashoffset:0;stroke-opacity:1" d="" id="path4801"/><path style="fill:#ff7f21;fill-opacity:1;stroke:#ff7f21;stroke-width:1.05685;stroke-miterlimit:4;stroke-dasharray:none;stroke-dashoffset:0;stroke-opacity:1" d="" id="path4869"/><path style="fill:#d500d5;fill-opacity:1;stroke:#d500d5;stroke-width:0.795943;stroke-miterlimit:4;stroke-dasharray:none;stroke-dashoffset:0;stroke-opacity:1" d="" id="path5035"/><path style="fill:#000000;fill-opacity:1;stroke:none;stroke-width:9.96879;stroke-miterlimit:4;stroke-dasharray:none;stroke-dashoffset:0;stroke-opacity:1" d="m 323.47293,395.16484 c -1.88499,-2.87685 -10.1954,-22.15669 -10.58481,-24.55635 -0.46736,-2.87998 0.25805,-3.36133 13.16738,-8.73739 5.47328,-2.27932 12.01775,-5.27341 14.54328,-6.65352 14.01053,-7.65627 25.56785,-17.7938 35.30361,-30.96666 10.31619,-13.95814 10.90674,-16.12364 11.38524,-41.74904 l 0.35406,-18.96138 -6.02054,-11.79749 c -6.77254,-13.27101 -11.51556,-20.0639 -16.77101,-24.01915 -4.65622,-3.50425 -13.24967,-7.74267 -20.70812,-10.21354 -5.58429,-1.84999 -6.67856,-1.97042 -18.17568,-2.00029 -13.88832,-0.0361 -16.55014,0.41859 -41.01748,7.00639 -7.7569,2.08854 -14.28319,3.79734 -14.50282,3.79734 -0.21963,0 -0.35078,-3.06715 -0.29144,-6.81589 0.12333,-7.79017 -0.58253,-9.78545 -4.75898,-13.45242 -4.98906,-4.38045 -13.16024,-6.99523 -21.86011,-6.99523 h -4.76581 l -9.29328,-19.39906 c -22.58269,-47.13976 -26.33104,-56.61168 -35.93861,-90.814864 -2.50119,-8.904314 -6.41218,-22.431216 -8.69109,-30.059789 -10.7914,-36.124091 -16.51585,-76.21881 -17.35093,-121.528018 -0.56911,-30.878965 1.15496,-45.866159 7.4466,-64.732429 6.39363,-19.17216 13.90404,-30.20446 33.05513,-48.5558 18.1392,-17.38167 26.70593,-22.32049 48.43947,-27.92595 18.42913,-4.75316 30.56906,-4.82875 44.83788,-0.27919 27.56384,8.78866 41.09751,21.50086 57.71835,54.21484 5.40514,10.63869 7.00339,14.83239 16.47872,43.23927 5.77118,17.30187 12.1189,36.569834 14.10608,42.817731 2.07103,6.511475 3.97764,11.359806 4.46728,11.359806 1.14771,0 4.04802,-3.160316 10.58563,-11.534563 22.60378,-28.953989 74.26952,-78.106084 105.18952,-100.071794 13.57789,-9.64578 36.55507,-22.26696 47.90073,-26.31149 11.94226,-4.25717 30.60893,-6.69557 41.3277,-5.39856 7.42812,0.89882 14.41688,3.97225 25.06874,11.02432 9.62364,6.37138 15.53051,12.39604 19.08506,19.46571 6.90708,13.73749 13.42146,37.95258 13.42146,49.88981 0,11.42248 -3.45911,39.5093 -7.06236,57.344042 -5.44005,26.926328 -12.71484,49.0676934 -24.45962,74.444701 l -5.01745,10.841249 -4.27514,0.02434 c -5.70359,0.03252 -13.84464,1.536383 -20.72923,3.829156 -4.284,1.426713 -6.41546,1.777498 -8.91847,1.46775 -12.80774,-1.584907 -14.1083,-1.488943 -21.87958,1.614434 -15.52708,6.20059 -30.99832,15.872169 -40.41961,25.267682 -14.03379,13.9954 -22.431,34.828453 -22.431,55.650306 0,7.62628 1.4592,16.52396 3.30065,20.12596 2.32847,4.5547 9.84308,14.86749 14.00122,19.21474 2.40303,2.51234 4.36915,4.95364 4.36915,5.42511 0,0.47148 -4.32547,5.36042 -9.61213,10.86433 -14.42702,15.01977 -25.90419,27.87574 -46.96222,52.60391 -21.67795,25.45611 -26.24844,31.32779 -44.0762,56.62428 -16.28351,23.10534 -27.7087,38.51651 -33.16845,44.74016 -2.36107,2.6914 -6.48444,7.5649 -9.16305,10.82999 -6.6157,8.06417 -15.02672,17.48098 -29.35174,32.86158 -6.62482,7.11299 -15.09083,16.47172 -18.81336,20.79719 -3.72253,4.32547 -6.90028,7.86448 -7.06167,7.86448 -0.1614,0 -0.80082,-0.77436 -1.42095,-1.7208 z" id="path4781"/><path style="fill:#000000;fill-opacity:1;stroke:none;stroke-width:7.049;stroke-miterlimit:4;stroke-dasharray:none;stroke-dashoffset:0;stroke-opacity:1" d="M 60.743776,296.3885 C 46.88715,295.70533 26.03719,292.07456 12.625435,288.00928 -3.160419,283.22437 -22.522132,273.6215 -32.714726,265.52182 c -15.548039,-12.35546 -29.556601,-45.7209 -35.153446,-83.72809 -1.351241,-9.17603 -1.238301,-29.5006 0.210211,-37.82988 3.488317,-20.05866 10.163741,-36.74241 26.2002,-65.481679 C -16.240564,33.28991 3.025698,13.067965 42.23186,-9.3588329 57.026301,-17.821584 67.550368,-22.723016 84.362574,-28.980624 c 20.839216,-7.756498 41.489206,-13.841333 56.460016,-16.636841 5.2749,-0.984991 17.05441,-1.671426 17.05407,-0.993801 -0.003,3.200744 8.77406,63.859515 10.37412,71.707559 1.44828,7.103586 1.75742,10.356056 0.93695,9.858005 -0.37598,-0.22823 -2.59562,-1.666981 -4.93258,-3.197225 -5.04925,-3.30626 -7.62579,-4.122817 -12.19459,-3.864663 -8.05633,0.455242 -16.57027,7.712154 -22.2368,18.953691 -5.67219,11.252756 -4.56817,22.249342 4.19351,41.769506 3.84223,8.560091 5.56953,13.014693 5.56953,14.363413 0,0.90048 -0.22174,0.96493 -2.34913,0.68273 -5.54804,-0.73597 -20.31645,3.38961 -31.17413,8.70856 -6.975422,3.41712 -8.117787,4.42388 -16.878141,14.87495 l -5.655045,6.74643 -3.366214,-4.96225 C 75.784412,122.57313 71.055118,117.01918 63.592175,109.56778 55.980033,101.96743 50.535358,97.807285 46.759727,96.706459 c -3.414527,-0.995521 -9.322091,-0.996024 -12.594563,0 -5.99821,1.823641 -11.803169,7.506311 -15.65156,15.321791 -3.322134,6.74674 -3.689455,8.50382 -3.355657,16.05218 0.545386,12.33295 3.493267,19.74233 11.635687,29.24585 6.598655,7.70169 18.321046,19.00085 22.866905,22.04131 l 3.72118,2.48888 -1.923468,4.17084 c -5.755243,12.47966 -6.962352,17.7387 -6.970713,30.36945 -0.0061,9.25013 0.43262,13.88182 2.458297,25.95147 0.918448,5.47238 1.606682,8.01828 2.909993,10.76461 2.391251,5.03884 7.276333,11.99863 11.370707,16.1999 2.97217,3.04974 4.289769,3.95885 9.156356,6.31762 9.5241,4.61619 21.297609,8.27309 28.917344,8.98183 5.278725,0.49099 14.844765,-0.58433 22.650955,-2.54621 15.39293,-3.86858 32.38759,-10.59132 62.8293,-24.85399 7.0489,-3.30257 13.11307,-5.89075 13.47595,-5.7515 0.49699,0.19072 0.58258,0.9577 0.34689,3.10875 -0.62047,5.66305 -0.65217,5.68314 -12.30389,7.80422 -13.70356,2.4946 -20.36839,4.91763 -40.78086,14.8261 -29.24064,14.19376 -40.72255,17.45323 -66.979511,19.01408 -8.008038,0.47604 -11.090354,0.50651 -17.795293,0.17593 z" id="path4783-7"/><path style="fill:#000000;fill-opacity:1;stroke:none;stroke-width:7.049;stroke-miterlimit:4;stroke-dasharray:none;stroke-dashoffset:0;stroke-opacity:1" d="m 117.28407,-48.140558 c -0.29541,-0.753904 -1.65037,-5.597128 -3.01101,-10.762721 -2.40022,-9.112249 -2.48134,-9.645649 -2.72391,-17.910889 -0.19513,-6.648767 -0.0651,-9.624483 0.59205,-13.554789 1.62939,-9.744523 4.06699,-14.885533 9.79581,-20.659933 9.39765,-9.4724 23.64221,-15.72035 39.0167,-17.11357 5.23676,-0.47453 5.45975,-0.34766 4.58277,2.60731 -0.38704,1.3041 -1.91416,8.46259 -3.3936,15.90773 -1.87143,9.41766 -2.98278,13.929993 -3.65244,14.829391 -0.81114,1.089422 -1.4609,1.33641 -4.13063,1.569985 -4.11424,0.359992 -7.1569,1.909656 -11.32443,5.767705 -4.99192,4.621186 -5.18435,5.189669 -5.14916,15.210604 0.0331,9.428348 0.42005,11.453601 2.99818,15.693549 0.95028,1.562761 1.59187,3.061282 1.42579,3.330019 -0.42477,0.687255 -5.64309,2.19374 -14.58691,4.211135 -4.21401,0.950542 -8.16591,1.844569 -8.78197,1.98673 -0.88288,0.203755 -1.23385,-0.03178 -1.65724,-1.112256 z" id="path4785"/><path style="fill:#000000;fill-opacity:1;stroke:none;stroke-width:7.049;stroke-miterlimit:4;stroke-dasharray:none;stroke-dashoffset:0;stroke-opacity:1" d="m -112.01886,157.05501 c -8.33956,-0.46019 -12.45125,-1.19221 -16.05885,-2.85902 -16.7751,-7.75058 -25.02909,-23.80596 -25.05698,-48.73997 -0.014,-12.535272 2.10578,-20.450679 9.26666,-34.601945 8.19162,-16.188214 15.06625,-23.53175 27.53205,-29.409919 10.30812,-4.860713 17.432591,-5.282194 32.479677,-1.921457 7.063441,1.577605 17.573681,4.995175 21.577226,7.016168 3.244548,1.637824 12.036002,7.973324 12.044349,8.679656 0.003,0.2363 -0.748691,1.682168 -1.66997,3.213047 -2.681063,4.455054 -4.395537,8.139536 -8.156239,17.528222 -1.941576,4.847194 -3.876472,9.482826 -4.299763,10.301367 -0.925509,1.789748 -0.395964,2.14249 -8.360219,-5.569056 -6.106755,-5.913014 -9.529889,-8.299952 -14.144011,-9.862555 -3.989895,-1.3512 -8.601265,-1.146281 -12.125092,0.538798 -5.370278,2.568045 -10.958608,10.234691 -13.494968,18.513821 -3.07678,10.043134 -1.01959,22.196663 5.41663,32.000663 5.30176,8.07593 10.125364,10.12333 20.110188,8.5359 2.770585,-0.44048 5.995181,-0.73186 7.165769,-0.64752 l 2.128348,0.15334 -0.07117,5.43745 c -0.0713,5.44744 -1.207741,15.16162 -2.185771,18.68388 -0.364961,1.31436 -0.919927,2.03716 -1.850876,2.41064 -1.310466,0.52572 -23.580278,0.96638 -30.246988,0.59849 z" id="path4787"/><path style="fill:#000000;fill-opacity:1;stroke:none;stroke-width:2.4922;stroke-miterlimit:4;stroke-dasharray:none;stroke-dashoffset:0;stroke-opacity:1" d="m 154.05665,-53.242254 c -2.87496,-1.758103 -8.38459,-11.41849 -10.08295,-17.678981 -0.5983,-2.205541 -0.56113,-4.827852 0.0954,-6.728513 0.74983,-2.170721 1.7105,-3.644821 3.5905,-5.509498 1.19168,-1.181947 2.03308,-1.848538 2.90171,-2.298806 1.99602,-1.034706 2.77418,-1.19216 5.8924,-1.19216 h 2.77056 l -0.0974,0.83013 c -0.48106,4.099111 -1.60594,19.596682 -1.84258,25.384813 -0.10412,2.547223 -0.26781,4.9852 -0.36373,5.417767 -0.41436,1.868408 -1.55519,2.575587 -2.86393,1.775248 z" id="path4791"/><path style="fill:#000000;fill-opacity:1;stroke:none;stroke-width:2.4922;stroke-miterlimit:4;stroke-dasharray:none;stroke-dashoffset:0;stroke-opacity:1" d="m -95.250388,124.78176 c -1.573527,-0.37072 -2.989172,-1.45276 -5.419292,-4.1422 -3.73769,-4.13653 -5.95053,-8.7779 -6.7609,-14.18077 -0.31662,-2.11098 -0.24487,-6.10584 0.15096,-8.404649 0.94029,-5.460868 3.474,-10.495836 7.0778,-14.064932 2.704659,-2.678589 5.47926,-4.04712 9.061155,-4.469289 5.938742,-0.699902 12.875222,2.475891 17.901065,8.195865 4.610396,5.247138 5.230193,8.881639 3.030291,17.769685 -0.380661,1.53794 -1.086821,4.07117 -1.569241,5.6294 -2.022247,6.53187 -3.651723,9.09252 -6.714347,10.5513 -4.061822,1.93473 -13.95917,3.77486 -16.757491,3.11559 z" id="path4793"/><path style="fill:#000000;fill-opacity:1;stroke:none;stroke-width:7.049;stroke-miterlimit:4;stroke-dasharray:none;stroke-dashoffset:0;stroke-opacity:1" d="m 95.031924,146.16611 c -3.320309,-1.26781 -3.936127,-6.11992 -1.430576,-11.27133 1.979771,-4.07044 8.750852,-10.964 14.551052,-14.81428 5.07719,-3.37034 16.81916,-9.21986 21.16431,-10.54348 4.04752,-1.23294 6.10177,-1.01422 10.2789,1.09439 3.48803,1.76075 4.88432,3.71041 4.88699,6.82379 0.007,8.13395 -15.0381,20.87015 -30.89275,26.15181 -6.51896,2.17166 -16.109181,3.49413 -18.557926,2.5591 z" id="path4795"/><path style="fill:#000000;fill-opacity:1;stroke:none;stroke-width:2.4922;stroke-miterlimit:4;stroke-dasharray:none;stroke-dashoffset:0;stroke-opacity:1" d="m 88.601358,276.05476 c -6.247474,-0.62962 -8.500454,-1.18215 -11.862937,-2.90935 -2.30468,-1.18383 -4.586605,-2.90671 -7.645162,-5.77222 -7.728268,-7.24043 -12.731274,-14.17868 -15.174013,-21.04355 -3.347191,-9.40663 -4.006374,-22.99556 -1.656847,-34.15484 1.900899,-9.02847 6.298644,-20.02874 11.695165,-29.25362 5.664332,-9.68266 14.162114,-21.49503 19.414649,-26.98731 2.329788,-2.43613 3.617198,-3.42455 4.665239,-3.58171 1.067302,-0.16005 3.042655,0.17373 5.130694,0.86694 3.053291,1.01368 4.860951,1.3146 8.559484,1.42491 2.05785,0.0614 4.10342,0.0209 5.33037,-0.1055 14.26292,-1.46927 29.42995,-8.50447 38.51783,-17.86645 2.65483,-2.73488 3.73224,-4.16273 4.79568,-6.35553 1.3126,-2.70652 1.49738,-3.71578 1.84005,-10.04906 0.13782,-2.54722 0.34189,-5.06385 0.45352,-5.59252 0.76742,-3.63462 3.34502,-5.4887 12.2252,-8.79367 1.68402,-0.62674 4.59833,-1.61779 6.47624,-2.20236 l 3.41436,-1.06283 h 6.41083 6.41086 l 0.68,1.35443 c 0.94724,1.88674 2.10897,5.0881 4.39187,12.10256 3.68946,11.3363 7.59143,21.65904 12.7168,33.64251 6.09473,14.24987 11.04564,24.56416 20.86949,43.47778 l 4.88159,9.39836 -7.5026,7.64135 c -8.18545,8.33685 -9.00325,9.20701 -11.69834,12.44743 -4.12724,4.96232 -6.33556,8.22604 -8.38372,12.3905 -3.67393,7.46995 -4.66725,8.26944 -20.37181,16.39637 -16.33096,8.4511 -29.70593,14.19994 -44.7761,19.24572 -10.40283,3.48308 -15.81398,4.415 -29.62288,5.1017 -3.81272,0.18961 -18.904902,0.36901 -20.185512,0.23996 z m 50.353672,-63.07441 c 5.11376,-0.8663 14.1256,-3.01303 21.30052,-5.07405 7.28229,-2.09187 9.72847,-3.11898 13.49121,-5.66473 7.06776,-4.78184 14.66533,-12.48419 16.90267,-17.13581 0.65733,-1.36664 0.71382,-1.5974 0.70591,-2.88364 -0.01,-1.60572 -0.259,-2.48888 -0.86167,-3.05507 -0.36129,-0.33942 -0.56219,-0.38607 -1.37303,-0.31883 -1.82888,0.15167 -4.33983,1.85151 -9.37866,6.34907 -1.58599,1.41564 -3.71234,3.23363 -4.72517,4.03997 -7.80674,6.21515 -18.3915,11.96764 -27.78135,15.09833 -5.40732,1.80285 -8.90037,2.52171 -13.54439,2.78739 -1.53795,0.088 -3.03443,0.2322 -3.32555,0.32049 -1.04815,0.31792 -2.02496,0.93086 -2.36056,1.48125 -0.41135,0.67461 -0.42794,1.02635 -0.0802,1.6988 0.42376,0.8195 1.57753,1.35753 4.12933,1.92561 1.28482,0.28603 2.49333,0.59319 2.68557,0.68258 0.57068,0.26537 1.48799,0.21067 4.21537,-0.25136 z" id="path4799"/><path style="fill:#000000;fill-opacity:1;stroke:none;stroke-width:2.4922;stroke-miterlimit:4;stroke-dasharray:none;stroke-dashoffset:0;stroke-opacity:1" d="m 135.98051,624.47634 c -12.76393,-0.68274 -28.94637,-4.36579 -40.982691,-9.32745 -2.712588,-1.11819 -9.080315,-4.27915 -12.845336,-6.37645 -9.173209,-5.10994 -19.150171,-11.67087 -20.070762,-13.19869 -0.204152,-0.33877 -0.191135,-0.44936 0.09959,-0.84648 0.449078,-0.61348 2.833714,-1.79822 4.361762,-2.16704 3.304143,-0.79749 9.867927,-1.17434 20.397417,-1.17107 13.62226,0.004 24.69409,0.64737 34.70918,2.01618 18.11435,2.47578 54.22804,9.14806 58.22952,10.75835 0.2581,0.10387 0.53922,0.39769 0.62471,0.65295 0.40677,1.21431 -0.60775,2.93687 -3.36595,5.71516 -3.60741,3.63371 -7.42495,6.2276 -13.76002,9.34955 -6.71775,3.31052 -9.82409,4.06176 -18.7465,4.53365 -3.07621,0.1627 -6.32542,0.18574 -8.65092,0.0613 z" id="path4801-6"/><path style="fill:#000000;fill-opacity:1;stroke:none;stroke-width:2.4922;stroke-miterlimit:4;stroke-dasharray:none;stroke-dashoffset:0;stroke-opacity:1" d="m 233.44766,616.7951 c -10.86083,-0.83858 -19.82044,-2.97008 -29.44812,-7.00574 -6.54717,-2.74438 -11.01027,-5.56245 -11.01027,-6.95202 0,-1.11296 2.58448,-5.10036 4.61735,-7.12379 2.54598,-2.53411 6.13159,-3.70838 16.91071,-5.53816 10.39776,-1.76505 21.47999,-2.58978 37.01865,-2.75493 18.26106,-0.19407 31.59921,0.76898 40.3294,2.9119 4.46821,1.09677 8.95546,2.47415 10.65864,3.27169 0.7044,0.32985 0.91752,0.52024 0.91752,0.81966 0,1.87674 -6.67485,7.76559 -12.75792,11.2556 -3.21804,1.84626 -6.02832,2.82083 -15.20467,5.2728 -10.71179,2.86225 -19.80901,4.6747 -27.70045,5.5188 -2.48142,0.26542 -12.23452,0.48606 -14.33084,0.32419 z" id="path4803"/><path style="fill:#000000;fill-opacity:1;stroke:none;stroke-width:7.049;stroke-miterlimit:4;stroke-dasharray:none;stroke-dashoffset:0;stroke-opacity:1" d="m 303.05197,588.37781 c -14.21858,-3.91212 -23.33593,-5.18982 -47.20498,-6.61528 -13.01273,-0.77712 -40.14361,-0.38285 -46.44524,0.67494 -2.57167,0.43169 -4.72178,0.7387 -4.77806,0.68227 -0.0563,-0.0564 0.56213,-2.66068 1.37419,-5.78721 1.95945,-7.54408 2.35651,-14.73325 1.19682,-21.66871 -1.03082,-6.1648 -2.36858,-10.14367 -5.66317,-16.84394 -1.39184,-2.83056 -2.53061,-5.80725 -2.53061,-6.61487 0,-2.23588 2.52511,-4.23986 9.97604,-7.91723 14.44426,-7.12886 24.00117,-9.71922 36.01714,-9.76229 8.55144,-0.0307 13.46841,0.80629 23.5874,4.01491 5.59326,1.77357 8.02669,1.90653 8.02669,0.43856 0,-3.98097 -5.29323,-7.25738 -15.18468,-9.39899 -3.85871,-0.83546 -7.20373,-1.10007 -16.56535,-1.31042 -7.80476,-0.17536 -11.87939,-0.44982 -12.17581,-0.82014 -0.79504,-0.99323 -4.47069,-11.8111 -5.4797,-16.12746 -1.90437,-8.14631 -2.61332,-15.87871 -2.35667,-25.70432 0.29186,-11.17438 0.89323,-13.8226 3.7043,-16.31235 1.07434,-0.95155 5.37559,-3.65743 9.55833,-6.01305 8.25032,-4.64642 14.77058,-8.89945 21.41032,-13.96557 5.41666,-4.13288 7.89152,-5.42676 9.12128,-4.76861 1.51902,0.81296 5.60845,5.55721 9.46367,10.97904 2.00141,2.81474 7.51654,10.43298 12.25581,16.92944 20.17805,27.65945 25.46366,37.51869 30.90082,57.63934 8.09239,29.94653 5.14173,56.5248 -8.15631,73.46864 -3.78386,4.82128 -6.05049,5.90434 -10.05223,4.8033 z" id="path4805"/><path style="fill:#000000;fill-opacity:1;stroke:none;stroke-width:7.049;stroke-miterlimit:4;stroke-dasharray:none;stroke-dashoffset:0;stroke-opacity:1" d="m 173.72197,595.21019 c -16.45849,-5.68389 -38.65835,-10.29206 -58.75435,-12.19604 -7.79328,-0.73837 -23.41457,-0.32839 -39.050784,1.0249 -14.215321,1.2303 -22.535726,1.41955 -24.144578,0.54916 -1.516988,-0.82069 -3.362325,-4.92421 -4.390813,-9.76394 -1.231741,-5.79621 -1.212109,-26.08944 0.03244,-33.53636 3.405849,-20.37931 20.351882,-53.14418 46.240937,-89.40618 2.886181,-4.04256 5.736749,-7.53619 6.334602,-7.76363 1.470606,-0.55944 4.957386,0.0651 13.601776,2.43624 6.7999,1.86521 23.6393,5.85424 32.8671,7.78578 4.64672,0.97264 4.19843,0.243 5.1149,8.32549 0.31027,2.73631 0.4142,6.90134 0.23436,9.39196 -1.38668,19.20413 -6.80436,43.77749 -10.28541,46.65208 -0.4359,0.35996 -3.83405,1.40717 -7.55147,2.32714 -9.27754,2.29596 -10.89938,2.86595 -18.2616,6.41793 -9.80889,4.73241 -16.065202,9.16919 -16.065202,11.39298 0,0.35173 0.372982,1.01249 0.828882,1.46837 1.30339,1.3034 4.77176,0.56355 13.05272,-2.78429 4.03265,-1.63033 9.17662,-3.49122 11.43108,-4.1353 14.94055,-4.26845 32.78071,-5.25573 44.31369,-2.45235 11.49474,2.79408 24.30714,13.26607 27.90626,22.8087 0.95515,2.53244 1.07472,3.78994 1.04728,11.01498 -0.0272,7.16653 -0.18661,8.73384 -1.31363,12.91701 -2.27682,8.45068 -5.1843,14.41757 -8.90715,18.2796 -2.6307,2.72904 -4.47709,2.63152 -14.28104,-0.75423 z" id="path4807"/><path style="fill:#000000;fill-opacity:1;stroke:none;stroke-width:7.049;stroke-miterlimit:4;stroke-dasharray:none;stroke-dashoffset:0;stroke-opacity:1" d="m 285.90819,357.61183 c -4.12536,-0.60516 -6.40517,-1.24573 -31.58498,-8.87454 -32.80871,-9.94015 -36.15185,-10.77666 -47.48372,-11.88122 -6.74057,-0.65704 -16.3958,-0.45426 -39.72179,0.8342 -17.16071,0.94791 -23.9386,0.72267 -30.24793,-1.0052 -16.20454,-4.43774 -23.96463,-11.0692 -23.25777,-19.87515 0.41198,-5.13231 2.64057,-8.9221 8.99845,-15.30223 6.49555,-6.51825 12.75466,-10.82109 24.05766,-16.53847 15.7861,-7.98504 28.84832,-12.48791 43.01826,-14.82947 3.35584,-0.55455 7.17627,-1.35756 8.48985,-1.78449 2.87491,-0.93435 2.74126,-0.66624 8.00441,-16.06161 5.79882,-16.96222 9.6098,-24.72917 15.80573,-32.2127 6.90324,-8.33785 19.71643,-14.66057 28.48644,-14.05676 6.00025,0.41311 10.06536,4.0293 11.31922,10.0692 0.77608,3.7383 0.32348,6.1711 -2.00519,10.77872 -1.49519,2.95845 -1.96258,4.46246 -1.96258,6.3155 0,5.10589 1.67389,5.4879 9.46703,2.16055 8.92524,-3.81073 24.02967,-7.68365 36.91009,-9.46412 14.28975,-1.97527 37.81123,0.31411 46.42279,4.5184 4.63518,2.26297 15.95151,13.83755 20.52402,20.9924 3.49115,5.46283 6.29999,15.90185 6.29999,23.41393 0,9.84816 -3.80145,29.89534 -7.47554,39.42251 -2.1976,5.69862 -5.82935,10.90564 -11.4936,16.47901 -7.75782,7.63335 -16.56951,13.51318 -30.7094,20.49171 -8.87931,4.38226 -12.53207,5.73321 -17.40794,6.43825 -3.9874,0.57656 -20.45988,0.55742 -24.4535,-0.0284 z" id="path4809"/><path style="fill:#000000;fill-opacity:1;stroke:none;stroke-width:7.049;stroke-miterlimit:4;stroke-dasharray:none;stroke-dashoffset:0;stroke-opacity:1" d="m 170.33073,447.31617 c -23.40499,-1.11272 -46.39257,-4.36324 -63.025,-8.91195 -9.279305,-2.53775 -15.570859,-5.53094 -15.570859,-7.4078 0,-2.2002 40.527129,-17.93805 62.036349,-24.09051 22.13653,-6.33189 35.44848,-7.92589 65.99089,-7.90185 19.84608,0.0156 29.57494,0.50104 38.47365,1.91965 5.53032,0.88163 14.98243,3.13116 15.60359,3.71355 0.63301,0.59347 -0.51663,2.1663 -5.19935,7.11327 -9.08863,9.60151 -29.90581,22.85055 -45.84968,29.18091 -5.94997,2.36238 -14.44815,4.50174 -21.74028,5.47296 -5.59271,0.74488 -23.22301,1.26816 -30.71931,0.91177 z" id="path4811"/><path style="fill:#000000;fill-opacity:1;stroke:none;stroke-width:7.049;stroke-miterlimit:4;stroke-dasharray:none;stroke-dashoffset:0;stroke-opacity:1" d="m 538.22051,154.74939 c -4.41843,-0.84258 -8.49783,-3.19992 -12.974,-7.49724 -15.42235,-14.80607 -19.62666,-31.71727 -12.92305,-51.980949 4.25019,-12.847505 12.50845,-26.338662 21.99894,-35.938751 5.41706,-5.479627 9.93929,-8.591047 18.26139,-12.564374 10.52036,-5.022877 14.78976,-6.325712 20.72796,-6.325288 4.72461,0 5.15339,0.09234 9.69917,2.080815 7.70882,3.372088 9.3907,3.093509 19.67053,-3.258317 8.19954,-5.066453 10.35386,-3.643656 18.10287,11.955859 5.35302,10.776188 6.65583,14.989307 6.65279,21.514276 -0.005,9.846522 -4.38171,27.342019 -9.5337,38.106659 -1.81571,3.79378 -2.71013,4.90063 -9.21335,11.40158 -15.62391,15.61845 -34.15252,28.30765 -45.75889,31.33769 -6.31609,1.64892 -19.03601,2.25016 -24.71066,1.16804 z" id="path4813"/><path style="fill:#000000;fill-opacity:1;stroke:none;stroke-width:7.049;stroke-miterlimit:4;stroke-dasharray:none;stroke-dashoffset:0;stroke-opacity:1" d="m 54.525301,171.3128 c -3.438922,-2.30345 -9.61218,-8.11111 -15.886986,-14.94607 -11.763666,-12.81385 -15.473071,-19.99054 -15.482067,-29.95377 -0.0042,-4.71728 0.748771,-9.74899 1.786202,-11.9352 1.802421,-3.79832 10.317427,-10.55606 13.301054,-10.55606 7.047547,0 24.978862,16.71942 36.730516,34.24807 4.095909,6.10943 5.173398,8.13168 4.821396,9.04898 -0.685218,1.78562 -4.312814,-0.1264 -10.059273,-5.30198 -6.835113,-6.15606 -12.456662,-8.53986 -17.363201,-7.3628 -6.377517,1.52994 -9.26039,6.35837 -8.187611,13.71316 0.547476,3.75335 1.737387,5.51577 8.492067,12.57795 3.490806,3.64972 6.64501,7.35547 7.009341,8.23502 0.586767,1.41659 0.561552,1.7106 -0.220874,2.57518 -1.19806,1.32383 -2.597732,1.2268 -4.940564,-0.34248 z" id="path4815"/><path style="fill:#000000;fill-opacity:1;stroke:none;stroke-width:7.049;stroke-miterlimit:4;stroke-dasharray:none;stroke-dashoffset:0;stroke-opacity:1" d="m 148.89463,101.6888 c -1.57876,-1.57877 -2.65207,-4.026798 -7.30496,-16.66134 -4.93051,-13.388419 -5.389,-15.392929 -5.40178,-23.616734 -0.0122,-7.880006 0.80536,-11.4105 3.66842,-15.840208 3.35746,-5.194617 8.03553,-7.546683 12.75699,-6.414029 4.75483,1.140672 12.11032,6.396964 16.96148,12.120801 3.69912,4.364566 6.48624,10.088986 9.98895,20.51632 4.25664,12.671822 5.60983,19.905769 3.97701,21.260885 -1.1361,0.942869 -2.31831,-0.40169 -4.72567,-5.374746 -6.77127,-13.9877 -8.68112,-17.233661 -11.69879,-19.883199 -3.28102,-2.880783 -6.46285,-3.595714 -9.79906,-2.201757 -2.62284,1.095905 -6.1572,3.798094 -6.93497,5.302118 -1.53561,2.969525 -0.11919,12.889151 3.27367,22.926569 1.93355,5.720159 1.91426,6.87663 -0.13547,8.12639 -2.12304,1.29442 -3.12698,1.23777 -4.62582,-0.26107 z" id="path4817"/><path style="fill:#000000;fill-opacity:1;stroke:none;stroke-width:7.049;stroke-miterlimit:4;stroke-dasharray:none;stroke-dashoffset:0;stroke-opacity:1" d="m 61.772608,425.61912 c -1.952677,-1.12955 -3.929194,-4.5835 -4.294081,-7.50381 -0.342556,-2.74184 0.735436,-17.32832 2.027449,-27.43368 2.56585,-20.06845 8.072596,-46.4664 13.09579,-62.77784 1.964478,-6.37909 7.863417,-21.63208 9.089919,-23.50396 0.888048,-1.35533 4.485375,-2.34628 13.351748,-3.678 3.792776,-0.56967 8.850977,-1.47123 11.240397,-2.00347 4.51874,-1.00653 6.82646,-1.21557 6.82646,-0.61835 0,0.19214 -1.14305,2.65527 -2.54015,5.47362 -3.18755,6.43025 -3.63665,9.94913 -1.94001,15.20077 3.28266,10.16096 11.5121,21.24996 18.33658,24.70819 6.03332,3.05732 15.30064,3.5423 37.5522,1.96521 21.618,-1.53219 41.15599,-0.53896 58.32904,2.9652 11.28257,2.30221 19.0178,4.70446 36.5792,11.36 6.66089,2.52439 16.0034,5.97036 20.76117,7.65772 4.75779,1.68735 9.59464,3.6138 10.74859,4.28099 3.55465,2.05524 3.83368,3.0402 3.83368,13.53247 0,6.34034 -0.20124,9.71327 -0.65622,10.99848 -0.65035,1.83702 -0.68061,1.85367 -3.36809,1.85367 -1.49151,0 -5.42259,-0.57237 -8.73572,-1.27193 -14.38138,-3.03659 -24.89391,-4.58508 -39.88438,-5.87493 -28.13706,-2.42105 -53.17257,-2.31627 -67.69978,0.28334 -14.91483,2.66898 -37.22759,8.17964 -46.98101,11.60306 -2.85464,1.00197 -9.19422,3.14838 -14.08792,4.76978 -13.02163,4.31437 -17.249327,5.97746 -27.681583,10.88935 -5.165566,2.43214 -11.060271,5.1056 -13.099309,5.94102 -4.248547,1.74067 -8.950087,2.25551 -10.80397,1.1831 z" id="path4819"/></g></svg>